<?xml version="1.0" encoding="utf-8"?>
<!-- Generator: Adobe Illustrator 16.0.4, SVG Export Plug-In . SVG Version: 6.00 Build 0)  -->
<!DOCTYPE svg PUBLIC "-//W3C//DTD SVG 1.1//EN" "http://www.w3.org/Graphics/SVG/1.1/DTD/svg11.dtd">
<svg version="1.1" id="Layer_1" xmlns="http://www.w3.org/2000/svg" xmlns:xlink="http://www.w3.org/1999/xlink" x="0px" y="0px"
	 width="325px" height="85px" viewBox="0 0 325 85" enable-background="new 0 0 325 85" xml:space="preserve">
<g>
	<g>
		<path fill="#0484B5" d="M110.946,20.713h11.357l6.89,15.506l6.022-15.506h12.03l-12.592,32.502h-10.785l-7.195-16.158
			l-6.288,16.158h-12.03L110.946,20.713z"/>
		<path fill="#0484B5" d="M160.366,53.865c-2.661,0-5.066-0.381-7.21-1.139c-2.146-0.758-3.959-1.797-5.431-3.109
			c-1.477-1.316-2.575-2.872-3.301-4.667c-0.724-1.798-0.995-3.73-0.812-5.806c0.218-2.505,0.973-4.912,2.262-7.218
			c1.291-2.307,2.965-4.342,5.021-6.105c2.055-1.764,4.433-3.166,7.134-4.203c2.699-1.035,5.573-1.555,8.616-1.555
			c2.66,0,5.063,0.378,7.211,1.138c2.146,0.759,3.957,1.795,5.431,3.11c1.476,1.316,2.577,2.873,3.301,4.667
			c0.724,1.795,0.995,3.729,0.813,5.804c-0.221,2.506-0.973,4.914-2.264,7.219c-1.291,2.308-2.966,4.342-5.021,6.106
			c-2.056,1.762-4.433,3.166-7.136,4.201C166.279,53.345,163.409,53.865,160.366,53.865z M162.033,44.299
			c1.277,0,2.451-0.254,3.518-0.767c1.062-0.509,1.994-1.167,2.79-1.974c0.796-0.804,1.438-1.717,1.927-2.739
			c0.485-1.021,0.772-2.042,0.862-3.062c0.075-0.868-0.001-1.672-0.229-2.416c-0.229-0.741-0.598-1.392-1.101-1.949
			c-0.506-0.557-1.166-0.991-1.985-1.3c-0.82-0.308-1.765-0.465-2.838-0.465c-1.279,0-2.451,0.255-3.516,0.766
			c-1.065,0.511-1.994,1.17-2.792,1.972c-0.796,0.808-1.438,1.72-1.925,2.742c-0.486,1.021-0.774,2.041-0.862,3.065
			c-0.077,0.865,0,1.67,0.227,2.414c0.229,0.742,0.595,1.392,1.103,1.948c0.502,0.558,1.155,0.991,1.959,1.302
			C159.973,44.146,160.929,44.299,162.033,44.299z"/>
		<path fill="#0484B5" d="M192.411,20.713h11.978l3.356,11.422l12.2-11.422h13.328L220.68,53.215h-12.082l6.23-16.113
			l-12.835,11.563h-0.207l-3.861-11.563l-6.231,16.113h-11.875L192.411,20.713z"/>
		<path fill="#0484B5" d="M249.73,20.48h12.029l2.633,32.734h-12.91l-0.241-4.364h-12.705l-3.543,4.364h-13.226L249.73,20.48z
			 M251.241,41.142l-0.296-7.892l-6.342,7.892H251.241z"/>
		<path fill="#0484B5" d="M281.342,36.127l-5.963-15.415h13.12l2.681,7.894l8.519-7.894h14.054L295.77,36.59l6.479,16.625h-13.119
			l-3.084-9.195l-9.982,9.195H262.01L281.342,36.127z"/>
	</g>
	<g>
		<path fill="#2D2D2D" stroke="#2D2D2D" stroke-miterlimit="10" d="M102.725,62.779h-4.326v-2.221h11.073v2.221h-4.33v11.424h-2.417
			V62.779z"/>
		<path fill="#2D2D2D" stroke="#2D2D2D" stroke-miterlimit="10" d="M115.904,60.559h10.098v2.162h-7.719v3.51h6.841v2.166h-6.841
			v3.645h7.816v2.163h-10.194L115.904,60.559L115.904,60.559z"/>
		<path fill="#2D2D2D" stroke="#2D2D2D" stroke-miterlimit="10" d="M139.219,74.438c-1.001,0-1.923-0.182-2.768-0.547
			c-0.843-0.363-1.58-0.858-2.198-1.486c-0.621-0.633-1.11-1.377-1.461-2.232c-0.357-0.861-0.529-1.775-0.529-2.749v-0.045
			c0-0.974,0.169-1.886,0.518-2.735c0.347-0.852,0.834-1.603,1.464-2.242c0.625-0.643,1.369-1.151,2.224-1.521
			c0.86-0.368,1.809-0.555,2.848-0.555c0.624,0,1.193,0.05,1.706,0.155c0.514,0.103,0.984,0.25,1.414,0.438
			c0.43,0.187,0.823,0.413,1.191,0.669c0.359,0.266,0.706,0.553,1.03,0.86l-1.541,1.774c-0.546-0.511-1.125-0.916-1.733-1.23
			c-0.614-0.309-1.31-0.469-2.087-0.469c-0.651,0-1.25,0.129-1.806,0.381c-0.549,0.253-1.029,0.6-1.431,1.035
			c-0.404,0.434-0.715,0.946-0.934,1.533c-0.223,0.582-0.331,1.204-0.331,1.867v0.037c0,0.665,0.108,1.295,0.331,1.884
			c0.219,0.593,0.53,1.109,0.934,1.552c0.401,0.439,0.882,0.787,1.431,1.041c0.557,0.252,1.155,0.383,1.806,0.383
			c0.831,0,1.546-0.159,2.145-0.479c0.598-0.317,1.188-0.751,1.774-1.297l1.54,1.558c-0.348,0.381-0.716,0.713-1.103,1.006
			c-0.383,0.291-0.796,0.545-1.236,0.764c-0.444,0.213-0.927,0.374-1.454,0.484C140.441,74.382,139.86,74.438,139.219,74.438z"/>
		<path fill="#2D2D2D" stroke="#2D2D2D" stroke-miterlimit="10" d="M151.147,60.559h2.382v5.672h6.552v-5.672h2.376v13.646h-2.376
			v-5.751h-6.552v5.751h-2.382V60.559z"/>
		<path fill="#2D2D2D" stroke="#2D2D2D" stroke-miterlimit="10" d="M169.867,60.559h2.216l7.294,9.435v-9.435h2.382v13.646h-2.005
			l-7.508-9.705v9.705h-2.379V60.559L169.867,60.559z"/>
		<path fill="#2D2D2D" stroke="#2D2D2D" stroke-miterlimit="10" d="M195.676,74.438c-1.053,0-2.014-0.188-2.886-0.557
			c-0.87-0.367-1.615-0.874-2.242-1.511c-0.622-0.636-1.108-1.381-1.46-2.229c-0.354-0.854-0.527-1.761-0.527-2.72v-0.045
			c0-0.96,0.176-1.866,0.527-2.717c0.352-0.849,0.844-1.603,1.48-2.238c0.636-0.649,1.391-1.157,2.263-1.532
			c0.871-0.38,1.83-0.565,2.884-0.565c1.053,0,2.018,0.187,2.887,0.555c0.869,0.369,1.617,0.874,2.242,1.513
			c0.624,0.639,1.11,1.379,1.461,2.229c0.35,0.853,0.526,1.758,0.526,2.72v0.037c0,0.963-0.177,1.867-0.526,2.725
			c-0.351,0.851-0.848,1.597-1.482,2.239c-0.635,0.647-1.391,1.154-2.26,1.531C197.691,74.248,196.729,74.438,195.676,74.438z
			 M195.715,72.236c0.672,0,1.291-0.131,1.854-0.383c0.564-0.254,1.049-0.601,1.445-1.031c0.403-0.438,0.717-0.947,0.945-1.525
			c0.229-0.591,0.339-1.212,0.339-1.874v-0.045c0-0.662-0.11-1.288-0.339-1.88c-0.229-0.59-0.549-1.105-0.954-1.538
			c-0.409-0.435-0.896-0.78-1.464-1.045c-0.572-0.261-1.193-0.392-1.865-0.392c-0.674,0-1.287,0.129-1.854,0.381
			c-0.562,0.253-1.045,0.6-1.445,1.035c-0.402,0.434-0.713,0.946-0.939,1.533c-0.228,0.582-0.338,1.204-0.338,1.867v0.037
			c0,0.665,0.11,1.295,0.338,1.884c0.228,0.593,0.541,1.105,0.949,1.54c0.407,0.438,0.899,0.784,1.469,1.04
			C194.42,72.104,195.046,72.236,195.715,72.236z"/>
		<path fill="#2D2D2D" stroke="#2D2D2D" stroke-miterlimit="10" d="M209.637,60.559h2.377V72.04h7.176v2.163h-9.553V60.559z"/>
		<path fill="#2D2D2D" stroke="#2D2D2D" stroke-miterlimit="10" d="M232.113,74.438c-1.055,0-2.016-0.188-2.887-0.557
			c-0.871-0.367-1.617-0.874-2.24-1.511c-0.623-0.636-1.109-1.381-1.463-2.229c-0.353-0.854-0.528-1.761-0.528-2.72v-0.045
			c0-0.96,0.177-1.866,0.528-2.717c0.354-0.849,0.846-1.603,1.481-2.238c0.638-0.649,1.39-1.157,2.263-1.532
			c0.871-0.38,1.83-0.565,2.883-0.565c1.055,0,2.016,0.187,2.89,0.555c0.864,0.369,1.616,0.874,2.241,1.513
			c0.623,0.639,1.107,1.379,1.462,2.229c0.349,0.853,0.524,1.758,0.524,2.72v0.037c0,0.963-0.177,1.867-0.524,2.725
			c-0.354,0.851-0.847,1.597-1.481,2.239c-0.64,0.647-1.393,1.154-2.264,1.531C234.13,74.248,233.164,74.438,232.113,74.438z
			 M232.15,72.236c0.674,0,1.291-0.131,1.854-0.383c0.563-0.254,1.047-0.601,1.446-1.031c0.402-0.438,0.713-0.947,0.941-1.525
			c0.229-0.591,0.342-1.212,0.342-1.874v-0.045c0-0.662-0.112-1.288-0.342-1.88c-0.229-0.59-0.547-1.105-0.949-1.538
			c-0.408-0.435-0.896-0.78-1.467-1.045c-0.57-0.261-1.189-0.392-1.863-0.392s-1.291,0.129-1.854,0.381
			c-0.563,0.253-1.042,0.6-1.446,1.035c-0.402,0.434-0.713,0.946-0.938,1.533c-0.229,0.582-0.343,1.204-0.343,1.867v0.037
			c0,0.665,0.112,1.295,0.343,1.884c0.225,0.593,0.537,1.105,0.947,1.54c0.404,0.438,0.896,0.784,1.469,1.04
			C230.855,72.104,231.479,72.236,232.15,72.236z"/>
		<path fill="#2D2D2D" stroke="#2D2D2D" stroke-miterlimit="10" d="M252.544,74.438c-1.067,0-2.036-0.181-2.903-0.535
			c-0.873-0.358-1.615-0.851-2.236-1.482c-0.612-0.63-1.092-1.371-1.43-2.222c-0.338-0.854-0.508-1.776-0.508-2.775v-0.045
			c0-0.946,0.174-1.851,0.521-2.708c0.347-0.855,0.834-1.611,1.462-2.247c0.629-0.649,1.373-1.157,2.235-1.532
			c0.865-0.38,1.812-0.565,2.838-0.565c0.6,0,1.145,0.041,1.629,0.125c0.486,0.087,0.937,0.205,1.354,0.358
			c0.414,0.156,0.808,0.351,1.185,0.577c0.367,0.229,0.725,0.492,1.078,0.791l-1.521,1.812c-0.261-0.22-0.526-0.423-0.804-0.603
			c-0.271-0.185-0.559-0.338-0.854-0.463c-0.299-0.121-0.631-0.221-0.986-0.292c-0.356-0.073-0.748-0.108-1.181-0.108
			c-0.622,0-1.204,0.131-1.741,0.393c-0.543,0.266-1.006,0.609-1.404,1.045c-0.396,0.438-0.711,0.95-0.936,1.535
			c-0.23,0.586-0.34,1.203-0.34,1.854v0.041c0,0.701,0.107,1.355,0.324,1.954c0.225,0.599,0.54,1.111,0.947,1.546
			c0.406,0.426,0.896,0.764,1.459,1.012c0.563,0.246,1.193,0.373,1.896,0.373c0.648,0,1.254-0.098,1.816-0.286
			c0.564-0.189,1.053-0.44,1.466-0.75v-2.573h-3.489v-2.084h5.811v5.734c-0.334,0.287-0.707,0.559-1.12,0.815
			c-0.406,0.259-0.849,0.488-1.324,0.683c-0.476,0.192-0.985,0.348-1.528,0.459C253.712,74.382,253.141,74.438,252.544,74.438z"/>
		<path fill="#2D2D2D" stroke="#2D2D2D" stroke-miterlimit="10" d="M265.393,60.559h2.377v13.646h-2.377V60.559z"/>
		<path fill="#2D2D2D" stroke="#2D2D2D" stroke-miterlimit="10" d="M275.336,60.559h10.1v2.162h-7.725v3.51h6.844v2.166h-6.844
			v3.645h7.818v2.163h-10.193V60.559z"/>
		<path fill="#2D2D2D" stroke="#2D2D2D" stroke-miterlimit="10" d="M297.091,74.396c-1.054,0-2.06-0.178-3.024-0.531
			c-0.959-0.354-1.849-0.908-2.668-1.648l1.443-1.717c0.663,0.568,1.332,1.007,2.006,1.314c0.676,0.305,1.443,0.461,2.301,0.461
			c0.74,0,1.33-0.156,1.766-0.469c0.438-0.312,0.654-0.729,0.654-1.25v-0.041c0-0.242-0.043-0.464-0.129-0.65
			c-0.084-0.186-0.242-0.367-0.467-0.534c-0.23-0.173-0.547-0.327-0.938-0.47c-0.397-0.144-0.916-0.283-1.56-0.43
			c-0.728-0.168-1.377-0.357-1.942-0.574c-0.567-0.215-1.044-0.473-1.425-0.776c-0.385-0.312-0.678-0.683-0.885-1.125
			c-0.201-0.438-0.3-0.976-0.3-1.597v-0.043c0-0.582,0.113-1.118,0.349-1.605c0.23-0.486,0.553-0.902,0.957-1.245
			c0.401-0.347,0.893-0.616,1.469-0.812c0.564-0.195,1.191-0.289,1.867-0.289c1,0,1.898,0.146,2.697,0.438
			c0.803,0.289,1.549,0.717,2.254,1.271l-1.289,1.814c-0.621-0.457-1.244-0.804-1.852-1.045c-0.611-0.236-1.229-0.354-1.852-0.354
			c-0.701,0-1.246,0.153-1.637,0.467c-0.391,0.31-0.586,0.694-0.586,1.147v0.041c0,0.263,0.043,0.49,0.137,0.692
			c0.094,0.198,0.258,0.379,0.5,0.544c0.24,0.163,0.571,0.316,0.996,0.458c0.418,0.144,0.961,0.289,1.609,0.45
			c0.719,0.186,1.354,0.383,1.906,0.604c0.555,0.222,1.015,0.492,1.377,0.812c0.367,0.312,0.646,0.688,0.833,1.109
			c0.19,0.42,0.284,0.912,0.284,1.472v0.036c0,0.637-0.121,1.213-0.357,1.717c-0.24,0.508-0.57,0.934-0.997,1.286
			c-0.426,0.352-0.938,0.618-1.534,0.797C298.46,74.312,297.807,74.396,297.091,74.396z"/>
	</g>
</g>
<polygon fill="#82BC00" points="48.704,3.226 11.816,24.525 11.816,67.118 32.867,79.273 32.867,37.087 48.704,27.945 
	64.538,37.087 64.538,79.273 85.589,67.118 85.589,24.525 "/>
</svg>
