<?xml version="1.0" encoding="utf-8"?>
<!-- Generator: Adobe Illustrator 16.0.4, SVG Export Plug-In . SVG Version: 6.00 Build 0)  -->
<!DOCTYPE svg PUBLIC "-//W3C//DTD SVG 1.1//EN" "http://www.w3.org/Graphics/SVG/1.1/DTD/svg11.dtd">
<svg version="1.1" id="Layer_1" xmlns="http://www.w3.org/2000/svg" xmlns:xlink="http://www.w3.org/1999/xlink" x="0px" y="0px"
	 width="612px" height="792px" viewBox="0 0 612 792" enable-background="new 0 0 612 792" xml:space="preserve">
<g>
	<g>
		<path fill="#0484B5" d="M253.946,369.463h11.357l6.89,15.506l6.022-15.506h12.03l-12.592,32.502h-10.785l-7.195-16.158
			l-6.288,16.158h-12.03L253.946,369.463z"/>
		<path fill="#0484B5" d="M303.366,402.615c-2.661,0-5.066-0.38-7.21-1.138c-2.146-0.758-3.959-1.798-5.431-3.11
			c-1.477-1.316-2.575-2.872-3.301-4.667c-0.724-1.797-0.995-3.73-0.812-5.806c0.218-2.505,0.973-4.912,2.262-7.218
			c1.291-2.307,2.965-4.342,5.021-6.105c2.055-1.764,4.433-3.166,7.134-4.203c2.699-1.035,5.573-1.555,8.615-1.555
			c2.661,0,5.064,0.378,7.212,1.138c2.146,0.759,3.956,1.795,5.43,3.11c1.475,1.316,2.577,2.873,3.301,4.667
			c0.724,1.795,0.995,3.729,0.813,5.804c-0.22,2.506-0.972,4.914-2.263,7.219c-1.292,2.307-2.966,4.342-5.021,6.106
			c-2.055,1.762-4.433,3.166-7.135,4.202S306.409,402.615,303.366,402.615z M305.033,393.049c1.278,0,2.451-0.254,3.518-0.767
			c1.062-0.509,1.994-1.167,2.79-1.974c0.796-0.804,1.438-1.717,1.926-2.739c0.486-1.021,0.773-2.042,0.863-3.062
			c0.075-0.868-0.001-1.672-0.229-2.416c-0.229-0.741-0.598-1.392-1.101-1.949c-0.506-0.557-1.166-0.991-1.985-1.3
			c-0.821-0.308-1.765-0.465-2.838-0.465c-1.28,0-2.451,0.255-3.516,0.766s-1.994,1.17-2.792,1.972
			c-0.796,0.808-1.438,1.72-1.925,2.742c-0.486,1.021-0.774,2.041-0.862,3.065c-0.077,0.865,0,1.67,0.227,2.414
			c0.229,0.742,0.595,1.392,1.103,1.948c0.502,0.558,1.155,0.991,1.959,1.302C302.973,392.896,303.929,393.049,305.033,393.049z"/>
		<path fill="#0484B5" d="M335.411,369.463h11.978l3.356,11.422l12.201-11.422h13.327l-12.593,32.502h-12.082l6.23-16.113
			l-12.835,11.563h-0.207l-3.861-11.563l-6.232,16.113h-11.875L335.411,369.463z"/>
		<path fill="#0484B5" d="M392.73,369.23h12.03l2.633,32.734h-12.911l-0.241-4.365h-12.705l-3.543,4.365h-13.226L392.73,369.23z
			 M394.241,389.892L393.946,382l-6.343,7.892H394.241z"/>
		<path fill="#0484B5" d="M424.342,384.877l-5.963-15.415h13.12l2.68,7.894l8.519-7.894h14.054L438.77,385.34l6.478,16.625h-13.119
			l-3.084-9.195l-9.983,9.195h-14.052L424.342,384.877z"/>
	</g>
	<g>
		<path d="M245.725,411.529h-4.326v-2.221h11.073v2.221h-4.33v11.424h-2.417V411.529z"/>
		<path d="M258.904,409.309h10.098v2.162h-7.719v3.509h6.841v2.167h-6.841v3.644h7.816v2.163h-10.194V409.309z"/>
		<path d="M282.219,423.188c-1.001,0-1.923-0.182-2.768-0.548c-0.843-0.362-1.58-0.858-2.198-1.486
			c-0.621-0.633-1.11-1.377-1.461-2.232c-0.357-0.861-0.529-1.775-0.529-2.749v-0.045c0-0.974,0.169-1.886,0.518-2.735
			c0.347-0.852,0.834-1.603,1.464-2.242c0.625-0.643,1.369-1.152,2.224-1.521c0.86-0.368,1.809-0.555,2.848-0.555
			c0.624,0,1.193,0.05,1.706,0.155c0.514,0.103,0.984,0.25,1.414,0.439c0.43,0.186,0.823,0.413,1.191,0.669
			c0.359,0.265,0.706,0.552,1.03,0.86l-1.541,1.775c-0.546-0.511-1.125-0.916-1.733-1.231c-0.614-0.309-1.31-0.469-2.087-0.469
			c-0.651,0-1.25,0.13-1.806,0.381c-0.549,0.253-1.029,0.6-1.431,1.036c-0.404,0.433-0.715,0.946-0.934,1.532
			c-0.223,0.582-0.331,1.205-0.331,1.868v0.037c0,0.665,0.108,1.295,0.331,1.884c0.219,0.593,0.53,1.109,0.934,1.552
			c0.401,0.439,0.882,0.786,1.431,1.041c0.557,0.252,1.155,0.382,1.806,0.382c0.831,0,1.546-0.159,2.145-0.479
			c0.598-0.318,1.188-0.751,1.774-1.297l1.54,1.558c-0.348,0.38-0.716,0.713-1.103,1.005c-0.383,0.292-0.796,0.546-1.236,0.764
			c-0.444,0.213-0.927,0.374-1.454,0.485C283.441,423.132,282.86,423.188,282.219,423.188z"/>
		<path d="M294.147,409.309h2.382v5.671h6.552v-5.671h2.376v13.645h-2.376v-5.751h-6.552v5.751h-2.382V409.309z"/>
		<path d="M312.867,409.309h2.216l7.294,9.434v-9.434h2.382v13.645h-2.005l-7.508-9.705v9.705h-2.379V409.309z"/>
		<path d="M338.676,423.188c-1.053,0-2.014-0.188-2.886-0.557c-0.87-0.367-1.615-0.874-2.242-1.511
			c-0.622-0.636-1.108-1.381-1.46-2.229c-0.353-0.855-0.527-1.761-0.527-2.72v-0.045c0-0.96,0.175-1.866,0.527-2.717
			c0.352-0.848,0.844-1.603,1.481-2.238c0.635-0.65,1.39-1.157,2.262-1.533c0.871-0.379,1.83-0.565,2.884-0.565
			c1.052,0,2.018,0.187,2.886,0.555c0.869,0.369,1.618,0.874,2.243,1.512c0.624,0.639,1.11,1.379,1.461,2.23
			c0.35,0.853,0.526,1.758,0.526,2.72v0.037c0,0.963-0.177,1.867-0.526,2.725c-0.351,0.85-0.848,1.596-1.482,2.239
			c-0.636,0.647-1.391,1.154-2.26,1.531C340.692,422.998,339.729,423.188,338.676,423.188z M338.715,420.986
			c0.671,0,1.291-0.13,1.854-0.382c0.564-0.255,1.048-0.601,1.445-1.032c0.403-0.437,0.717-0.947,0.945-1.525
			c0.228-0.591,0.339-1.212,0.339-1.874v-0.045c0-0.662-0.111-1.288-0.339-1.88c-0.229-0.59-0.549-1.105-0.954-1.538
			c-0.41-0.435-0.895-0.78-1.464-1.045c-0.572-0.261-1.193-0.392-1.865-0.392c-0.674,0-1.288,0.13-1.854,0.381
			c-0.562,0.253-1.044,0.6-1.445,1.036c-0.402,0.433-0.713,0.946-0.94,1.532c-0.227,0.582-0.337,1.205-0.337,1.868v0.037
			c0,0.665,0.11,1.295,0.337,1.884c0.228,0.593,0.542,1.105,0.95,1.54c0.407,0.437,0.899,0.784,1.469,1.04
			C337.42,420.854,338.046,420.986,338.715,420.986z"/>
		<path d="M352.637,409.309h2.377v11.481h7.175v2.163h-9.552V409.309z"/>
		<path d="M375.113,423.188c-1.054,0-2.016-0.188-2.886-0.557c-0.871-0.367-1.617-0.874-2.241-1.511
			c-0.623-0.636-1.109-1.381-1.463-2.229c-0.352-0.855-0.528-1.761-0.528-2.72v-0.045c0-0.96,0.177-1.866,0.528-2.717
			c0.354-0.848,0.846-1.603,1.482-2.238c0.637-0.65,1.39-1.157,2.263-1.533c0.87-0.379,1.83-0.565,2.883-0.565
			c1.054,0,2.015,0.187,2.889,0.555c0.865,0.369,1.616,0.874,2.241,1.512c0.624,0.639,1.108,1.379,1.462,2.23
			c0.349,0.853,0.524,1.758,0.524,2.72v0.037c0,0.963-0.176,1.867-0.524,2.725c-0.354,0.85-0.847,1.596-1.482,2.239
			c-0.639,0.647-1.392,1.154-2.263,1.531C377.13,422.998,376.164,423.188,375.113,423.188z M375.151,420.986
			c0.673,0,1.291-0.13,1.854-0.382c0.564-0.255,1.047-0.601,1.446-1.032c0.403-0.437,0.713-0.947,0.941-1.525
			c0.229-0.591,0.342-1.212,0.342-1.874v-0.045c0-0.662-0.112-1.288-0.342-1.88c-0.229-0.59-0.546-1.105-0.948-1.538
			c-0.409-0.435-0.897-0.78-1.468-1.045c-0.57-0.261-1.189-0.392-1.863-0.392c-0.673,0-1.291,0.13-1.854,0.381
			c-0.563,0.253-1.042,0.6-1.447,1.036c-0.402,0.433-0.713,0.946-0.937,1.532c-0.229,0.582-0.343,1.205-0.343,1.868v0.037
			c0,0.665,0.113,1.295,0.343,1.884c0.224,0.593,0.537,1.105,0.948,1.54c0.404,0.437,0.896,0.784,1.468,1.04
			C373.856,420.854,374.479,420.986,375.151,420.986z"/>
		<path d="M395.544,423.188c-1.067,0-2.036-0.181-2.903-0.536c-0.874-0.358-1.615-0.85-2.237-1.482
			c-0.612-0.63-1.092-1.371-1.429-2.222c-0.339-0.854-0.508-1.776-0.508-2.775v-0.045c0-0.946,0.173-1.851,0.521-2.708
			c0.347-0.856,0.834-1.611,1.462-2.247c0.629-0.65,1.373-1.157,2.236-1.533c0.865-0.379,1.812-0.565,2.838-0.565
			c0.599,0,1.144,0.041,1.629,0.125c0.486,0.087,0.936,0.205,1.354,0.359c0.414,0.156,0.808,0.35,1.184,0.577
			c0.368,0.229,0.725,0.492,1.079,0.791l-1.521,1.812c-0.261-0.219-0.526-0.423-0.803-0.602c-0.271-0.185-0.559-0.338-0.854-0.463
			c-0.299-0.121-0.631-0.221-0.986-0.292c-0.357-0.073-0.749-0.108-1.181-0.108c-0.623,0-1.204,0.131-1.742,0.392
			c-0.543,0.265-1.006,0.61-1.404,1.045c-0.396,0.438-0.711,0.95-0.935,1.535c-0.231,0.586-0.34,1.203-0.34,1.854v0.04
			c0,0.702,0.108,1.356,0.324,1.955c0.225,0.599,0.54,1.111,0.947,1.545c0.407,0.426,0.896,0.765,1.46,1.013
			c0.563,0.246,1.193,0.373,1.896,0.373c0.648,0,1.253-0.098,1.816-0.287c0.564-0.189,1.053-0.44,1.466-0.75v-2.573h-3.489v-2.084
			h5.811v5.734c-0.335,0.287-0.708,0.559-1.121,0.816c-0.406,0.259-0.849,0.488-1.324,0.682c-0.475,0.193-0.986,0.348-1.529,0.459
			C396.712,423.132,396.141,423.188,395.544,423.188z"/>
		<path d="M408.393,409.309h2.377v13.645h-2.377V409.309z"/>
		<path d="M418.336,409.309h10.099v2.162h-7.724v3.509h6.844v2.167h-6.844v3.644h7.819v2.163h-10.194V409.309z"/>
		<path d="M440.091,423.147c-1.054,0-2.06-0.178-3.024-0.532c-0.959-0.354-1.849-0.908-2.669-1.648l1.444-1.717
			c0.663,0.569,1.332,1.007,2.006,1.315c0.676,0.304,1.443,0.46,2.301,0.46c0.74,0,1.33-0.156,1.765-0.469
			c0.438-0.312,0.655-0.729,0.655-1.25v-0.041c0-0.242-0.043-0.463-0.13-0.65c-0.083-0.186-0.242-0.367-0.467-0.534
			c-0.23-0.173-0.546-0.327-0.938-0.47c-0.397-0.143-0.916-0.283-1.56-0.43c-0.727-0.167-1.376-0.357-1.942-0.574
			c-0.567-0.215-1.044-0.472-1.425-0.776c-0.385-0.312-0.678-0.683-0.884-1.125c-0.202-0.438-0.3-0.975-0.3-1.596v-0.044
			c0-0.581,0.113-1.118,0.349-1.605c0.23-0.487,0.552-0.902,0.957-1.245c0.401-0.347,0.892-0.617,1.468-0.812
			c0.564-0.195,1.191-0.289,1.867-0.289c1,0,1.899,0.146,2.697,0.438c0.803,0.289,1.55,0.717,2.254,1.271l-1.289,1.815
			c-0.621-0.457-1.243-0.804-1.851-1.045c-0.612-0.237-1.228-0.355-1.851-0.355c-0.702,0-1.247,0.153-1.637,0.467
			c-0.391,0.31-0.586,0.694-0.586,1.148v0.04c0,0.263,0.043,0.491,0.137,0.693c0.093,0.198,0.258,0.379,0.5,0.544
			c0.239,0.163,0.571,0.316,0.996,0.458c0.418,0.143,0.96,0.289,1.609,0.45c0.719,0.185,1.354,0.383,1.906,0.604
			c0.555,0.221,1.015,0.492,1.377,0.812c0.367,0.313,0.646,0.687,0.833,1.109c0.191,0.42,0.285,0.912,0.285,1.472v0.036
			c0,0.637-0.122,1.213-0.358,1.717c-0.24,0.508-0.571,0.934-0.997,1.286c-0.426,0.352-0.938,0.619-1.534,0.797
			C441.46,423.063,440.807,423.147,440.091,423.147z"/>
	</g>
</g>
<polygon fill="#82BC00" points="191.704,351.976 154.816,373.275 154.816,415.868 175.867,428.024 175.867,385.837 191.704,376.695 
	207.538,385.837 207.538,428.024 228.589,415.868 228.589,373.275 "/>
</svg>
